<svg width="779" height="254" viewBox="0 0 779 254" fill="none" xmlns="http://www.w3.org/2000/svg">
<path d="M3.96114 150.427C1.77346 137.354 10.5978 124.983 23.6709 122.795L155.988 100.653L177.115 226.898L21.1261 253.001L3.96114 150.427Z" fill="#0B0B0B"/>
<path d="M156.25 100.81L276.5 80.6866L297.626 206.931L177.377 227.054L156.25 100.81Z" fill="#36AD3A"/>
<path d="M276.5 80.6865L396.75 60.5636L417.876 186.808L297.627 206.931L276.5 80.6865Z" fill="#ECE735"/>
<path d="M396.75 60.5634L517 40.4405L538.126 166.685L417.876 186.808L396.75 60.5634Z" fill="#01AAD4"/>
<path d="M517 40.4406L637.25 20.3177L658.376 146.562L538.126 166.685L517 40.4406Z" fill="#C31906"/>
<path d="M637.25 20.3176L733.829 4.15582C746.902 1.96814 759.274 10.7925 761.461 23.8655L778.626 126.439L658.376 146.562L637.25 20.3176Z" fill="#6F6661"/>
<path d="M43.945 173.14L55.1851 177.342L57.1657 189.178L47.9062 196.811L36.6661 192.608L34.6856 180.773L43.945 173.14Z" fill="#D9D9D9"/>
</svg>
